<svg width="161" height="49" viewBox="0 0 161 49" fill="none" xmlns="http://www.w3.org/2000/svg">
<path d="M36.1453 8L39.9458 21.4329L48.1152 8H54.8282L50.3173 36.0339L43.8267 39.2656L46.4458 20.2259L40.9758 29.6484H36.3229L33.9076 20.2259L31.3502 36.0339L25.4752 46.4039L29.4677 8H36.1453Z" fill="#800080"/>
<path d="M9.94061 29.8637C9.94061 31.6547 11.1127 32.5502 13.457 32.5502C15.8249 32.5502 17.0089 31.7456 17.0089 30.1362C17.0089 29.2796 16.6063 28.5788 15.8012 28.0337C14.9961 27.4886 14.0134 27.0343 12.8532 26.6709C11.7166 26.3075 10.5681 25.8922 9.40782 25.425C8.27121 24.9318 7.30037 24.179 6.49527 23.1667C5.69017 22.1284 5.28762 20.8435 5.28762 19.312C5.28762 12.7967 9.11183 9.53906 16.7602 9.53906C19.5544 9.53906 21.6619 10.1231 23.0826 11.2912C24.5271 12.4333 25.2493 14.0297 25.2493 16.0803C25.2493 16.8331 25.1546 17.5599 24.9651 18.2607C24.7994 18.9356 24.6218 19.4158 24.4323 19.7014L24.1482 20.1686H17.8613C18.3823 19.5716 18.6428 18.8188 18.6428 17.9103C18.6428 16.2231 17.6364 15.3795 15.6236 15.3795C13.09 15.3795 11.8231 16.262 11.8231 18.0271C11.8231 18.9097 12.2257 19.6105 13.0308 20.1297C13.8358 20.6488 14.8067 21.0641 15.9433 21.3756C17.1036 21.6611 18.2639 22.0245 19.4242 22.4658C20.5845 22.9071 21.5671 23.6469 22.3722 24.6852C23.1773 25.6975 23.5799 27.0213 23.5799 28.6566C23.5799 31.9532 22.6801 34.4062 20.8804 36.0156C19.0808 37.5989 16.3103 38.3906 12.569 38.3906C8.82768 38.3906 1.48735 50.331 0.113955 48.8774C-0.904255 47.7872 5.28763 38.3906 3.3696 31.6937C3.3696 30.9668 3.44064 30.1751 3.58271 29.3186L3.68927 28.6956H10.0827L10.0116 29.1628C9.96428 29.4224 9.94061 29.656 9.94061 29.8637Z" fill="#800080"/>
<path d="M65.2 24.73H56.23L56.89 20.95H65.86L65.2 24.73ZM92.5333 16.57C92.8133 17.41 92.9533 18.53 92.9533 19.93C92.9533 21.31 92.7833 22.64 92.4433 23.92C92.1033 25.2 91.5833 26.42 90.8833 27.58C90.2033 28.72 89.2433 29.65 88.0033 30.37C86.7833 31.07 85.3733 31.42 83.7733 31.42C81.3733 31.42 79.7733 30.75 78.9733 29.41C77.5333 30.75 75.9233 31.42 74.1433 31.42C71.7433 31.42 70.0933 30.91 69.1933 29.89C68.5933 29.21 68.2933 28.2 68.2933 26.86C68.2933 26.16 68.3733 25.38 68.5333 24.52L69.9433 16.57H75.0433L73.6333 24.55C73.5733 24.85 73.5433 25.12 73.5433 25.36C73.5433 26.5 74.1333 27.07 75.3133 27.07C76.1333 27.07 76.7533 26.72 77.1733 26.02C77.5933 25.3 77.9533 24.05 78.2533 22.27L79.2733 16.57H84.3733L82.9633 24.55C82.9033 24.85 82.8733 25.12 82.8733 25.36C82.8733 26.5 83.4633 27.07 84.6433 27.07C86.7233 27.07 87.7633 24.89 87.7633 20.53C87.7633 19.51 87.6833 18.38 87.5233 17.14L87.4333 16.57H92.5333ZM100.714 31.42C96.5541 31.42 94.4741 29.98 94.4741 27.1C94.4741 26.7 94.5141 26.27 94.5941 25.81L95.2241 22.09C95.5641 20.17 96.4441 18.7 97.8641 17.68C99.3041 16.64 101.204 16.12 103.564 16.12C107.584 16.12 109.594 17.64 109.594 20.68C109.594 21.12 109.554 21.6 109.474 22.12L109.114 24.25H99.9641L99.8441 24.94C99.8041 25.18 99.7841 25.4 99.7841 25.6C99.7841 26.7 100.434 27.25 101.734 27.25C102.214 27.25 102.624 27.1 102.964 26.8C103.304 26.5 103.504 26.15 103.564 25.75L108.544 25.81C107.884 29.55 105.274 31.42 100.714 31.42ZM104.314 22.42C104.394 22.08 104.434 21.77 104.434 21.49C104.434 21.19 104.304 20.89 104.044 20.59C103.784 20.29 103.364 20.14 102.784 20.14C102.224 20.14 101.704 20.33 101.224 20.71C100.764 21.09 100.444 21.66 100.264 22.42H104.314ZM125.277 26.38C125.277 26.9 125.537 27.16 126.057 27.16C126.597 27.16 127.047 27.06 127.407 26.86L127.257 30.25C126.297 31.03 125.217 31.42 124.017 31.42C121.817 31.42 120.597 30.62 120.357 29.02C119.357 30.62 117.887 31.42 115.947 31.42C112.667 31.42 111.027 30.01 111.027 27.19C111.027 26.71 111.077 26.18 111.177 25.6L111.807 22.09C112.127 20.29 112.857 18.86 113.997 17.8C115.157 16.72 116.657 16.18 118.497 16.18C120.357 16.18 121.617 16.61 122.277 17.47L122.427 16.57H126.987L125.307 26.02C125.287 26.14 125.277 26.26 125.277 26.38ZM116.397 24.94C116.357 25.12 116.337 25.37 116.337 25.69C116.337 26.01 116.487 26.33 116.787 26.65C117.087 26.95 117.587 27.1 118.287 27.1C119.007 27.1 119.627 26.82 120.147 26.26L121.047 21.22C120.827 20.72 120.307 20.47 119.487 20.47C117.947 20.47 117.047 21.21 116.787 22.69L116.397 24.94ZM143.804 19.63C143.804 20.31 143.684 20.97 143.444 21.61C143.224 22.25 143.004 22.72 142.784 23.02L142.454 23.44H137.924C138.424 22.98 138.674 22.41 138.674 21.73C138.674 21.37 138.554 21.08 138.314 20.86C138.094 20.62 137.784 20.5 137.384 20.5C136.704 20.5 136.114 20.84 135.614 21.52L133.934 31H128.834L131.384 16.57H136.124L135.764 18.58C136.904 16.96 138.284 16.15 139.904 16.15C141.204 16.15 142.174 16.46 142.814 17.08C143.474 17.7 143.804 18.55 143.804 19.63ZM159.664 19.69C159.664 20.35 159.464 20.96 159.064 21.52H154.144C154.304 21.4 154.384 21.2 154.384 20.92C154.384 20.64 154.224 20.42 153.904 20.26C153.584 20.08 153.174 19.99 152.674 19.99C151.174 19.99 150.424 20.45 150.424 21.37C150.424 21.73 150.704 21.99 151.264 22.15C151.824 22.31 152.504 22.44 153.304 22.54C154.104 22.64 154.904 22.79 155.704 22.99C156.504 23.17 157.184 23.54 157.744 24.1C158.304 24.66 158.584 25.41 158.584 26.35C158.584 28.01 157.914 29.27 156.574 30.13C155.254 30.99 153.324 31.42 150.784 31.42C148.244 31.42 146.464 31.01 145.444 30.19C144.644 29.55 144.244 28.67 144.244 27.55C144.244 27.23 144.274 26.9 144.334 26.56L149.344 26.5C149.304 26.78 149.464 27.03 149.824 27.25C150.204 27.45 150.754 27.55 151.474 27.55C152.194 27.55 152.714 27.48 153.034 27.34C153.354 27.18 153.514 26.89 153.514 26.47C153.514 26.19 153.234 26 152.674 25.9C152.114 25.78 151.424 25.68 150.604 25.6C149.804 25.52 148.994 25.39 148.174 25.21C147.374 25.03 146.694 24.65 146.134 24.07C145.574 23.49 145.294 22.73 145.294 21.79C145.294 19.97 145.994 18.57 147.394 17.59C148.814 16.61 150.854 16.12 153.514 16.12C157.614 16.12 159.664 17.31 159.664 19.69Z" fill="black"/>
</svg>
