<svg width="137" height="40" viewBox="0 0 137 40" fill="none" xmlns="http://www.w3.org/2000/svg">
<path d="M30.7616 5.10645L33.996 16.5387L40.9487 5.10645H46.662L42.8229 28.9651L37.2989 31.7155L39.5279 15.5115L34.8727 23.5306H30.9127L28.8571 15.5115L26.6807 28.9651L21.6807 37.7906L25.0785 5.10645H30.7616Z" fill="white"/>
<path d="M8.46009 23.7135C8.46009 25.2379 9.45764 26 11.4528 26C13.468 26 14.4756 25.3152 14.4756 23.9455C14.4756 23.2165 14.133 22.62 13.4479 22.1561C12.7627 21.6922 11.9263 21.3056 10.9389 20.9963C9.97153 20.687 8.99413 20.3336 8.00666 19.9359C7.03933 19.5162 6.21308 18.8755 5.52789 18.014C4.8427 17.1303 4.50011 16.0368 4.50011 14.7334C4.50011 9.18848 7.75475 6.41602 14.264 6.41602C16.642 6.41602 18.4356 6.91307 19.6448 7.90718C20.8741 8.8792 21.4887 10.2378 21.4887 11.983C21.4887 12.6237 21.4081 13.2422 21.2469 13.8387C21.1058 14.4131 20.9547 14.8218 20.7935 15.0648L20.5516 15.4624H15.2011C15.6445 14.9543 15.8662 14.3137 15.8662 13.5405C15.8662 12.1045 15.0097 11.3866 13.2967 11.3866C11.1404 11.3866 10.0622 12.1377 10.0622 13.6399C10.0622 14.391 10.4048 14.9875 11.09 15.4293C11.7752 15.8711 12.6014 16.2246 13.5688 16.4897C14.5562 16.7327 15.5437 17.042 16.5312 17.4175C17.5187 17.7931 18.355 18.4227 19.0402 19.3063C19.7254 20.1679 20.068 21.2945 20.068 22.6863C20.068 25.4919 19.3022 27.5795 17.7706 28.9492C16.239 30.2968 13.8811 30.9706 10.697 30.9706C7.51292 30.9706 1.26583 41.1326 0.0969829 39.8955C-0.769579 38.9676 4.50011 30.9706 2.86775 25.271C2.86775 24.6524 2.9282 23.9786 3.04912 23.2496L3.13981 22.7194H8.581L8.52055 23.1171C8.48024 23.338 8.46009 23.5368 8.46009 23.7135Z" fill="white"/>
<path d="M55.4894 20.6638H47.8554L48.4171 17.4468H56.0511L55.4894 20.6638ZM78.7518 13.7191C78.9901 14.434 79.1093 15.3872 79.1093 16.5787C79.1093 17.7532 78.9646 18.8851 78.6752 19.9745C78.3859 21.0638 77.9433 22.1021 77.3476 23.0894C76.7688 24.0596 75.9518 24.8511 74.8965 25.4638C73.8582 26.0596 72.6582 26.3574 71.2965 26.3574C69.2539 26.3574 67.8922 25.7872 67.2114 24.6468C65.9859 25.7872 64.6156 26.3574 63.1007 26.3574C61.0582 26.3574 59.6539 25.9234 58.888 25.0553C58.3773 24.4766 58.122 23.617 58.122 22.4766C58.122 21.8809 58.1901 21.217 58.3263 20.4851L59.5263 13.7191H63.8667L62.6667 20.5106C62.6156 20.766 62.5901 20.9957 62.5901 21.2C62.5901 22.1702 63.0922 22.6553 64.0965 22.6553C64.7944 22.6553 65.322 22.3574 65.6795 21.7617C66.0369 21.1489 66.3433 20.0851 66.5986 18.5702L67.4667 13.7191H71.8071L70.6071 20.5106C70.5561 20.766 70.5305 20.9957 70.5305 21.2C70.5305 22.1702 71.0327 22.6553 72.0369 22.6553C73.8071 22.6553 74.6922 20.8 74.6922 17.0894C74.6922 16.2213 74.6242 15.2596 74.488 14.2043L74.4114 13.7191H78.7518ZM85.7142 26.3574C82.1738 26.3574 80.4036 25.1319 80.4036 22.6809C80.4036 22.3404 80.4376 21.9745 80.5057 21.583L81.0419 18.417C81.3313 16.783 82.0802 15.5319 83.2887 14.6638C84.5142 13.7787 86.1313 13.3362 88.1398 13.3362C91.5611 13.3362 93.2717 14.6298 93.2717 17.217C93.2717 17.5915 93.2376 18 93.1696 18.4426L92.8632 20.2553H85.0759L84.9738 20.8426C84.9398 21.0468 84.9228 21.234 84.9228 21.4043C84.9228 22.3404 85.4759 22.8085 86.5823 22.8085C86.9908 22.8085 87.3398 22.6809 87.6291 22.4255C87.9185 22.1702 88.0887 21.8723 88.1398 21.5319L92.3781 21.583C91.8164 24.766 89.5951 26.3574 85.7142 26.3574ZM88.7781 18.6979C88.8462 18.4085 88.8802 18.1447 88.8802 17.9064C88.8802 17.6511 88.7696 17.3957 88.5483 17.1404C88.327 16.8851 87.9696 16.7574 87.4759 16.7574C86.9993 16.7574 86.5568 16.9191 86.1483 17.2426C85.7568 17.566 85.4845 18.0511 85.3313 18.6979H88.7781ZM106.619 22.0681C106.619 22.5106 106.84 22.7319 107.283 22.7319C107.742 22.7319 108.125 22.6468 108.431 22.4766L108.304 25.3617C107.487 26.0255 106.568 26.3574 105.546 26.3574C103.674 26.3574 102.636 25.6766 102.431 24.3149C101.58 25.6766 100.329 26.3574 98.6783 26.3574C95.8868 26.3574 94.491 25.1574 94.491 22.7574C94.491 22.3489 94.5336 21.8979 94.6187 21.4043L95.1549 18.417C95.4272 16.8851 96.0485 15.6681 97.0187 14.766C98.0059 13.8468 99.2825 13.3872 100.848 13.3872C102.431 13.3872 103.504 13.7532 104.066 14.4851L104.193 13.7191H108.074L106.644 21.7617C106.627 21.8638 106.619 21.966 106.619 22.0681ZM99.0613 20.8426C99.0272 20.9957 99.0102 21.2085 99.0102 21.4809C99.0102 21.7532 99.1378 22.0255 99.3932 22.2979C99.6485 22.5532 100.074 22.6809 100.67 22.6809C101.283 22.6809 101.81 22.4426 102.253 21.966L103.019 17.6766C102.831 17.2511 102.389 17.0383 101.691 17.0383C100.38 17.0383 99.6144 17.6681 99.3932 18.9277L99.0613 20.8426ZM122.386 16.3234C122.386 16.9021 122.284 17.4638 122.08 18.0085C121.893 18.5532 121.705 18.9532 121.518 19.2085L121.237 19.566H117.382C117.808 19.1745 118.02 18.6894 118.02 18.1106C118.02 17.8043 117.918 17.5574 117.714 17.3702C117.527 17.166 117.263 17.0638 116.922 17.0638C116.344 17.0638 115.842 17.3532 115.416 17.9319L113.986 26H109.646L111.816 13.7191H115.85L115.544 15.4298C116.514 14.0511 117.688 13.3617 119.067 13.3617C120.173 13.3617 120.999 13.6255 121.544 14.1532C122.105 14.6809 122.386 15.4043 122.386 16.3234ZM135.884 16.3745C135.884 16.9362 135.714 17.4553 135.374 17.9319H131.186C131.323 17.8298 131.391 17.6596 131.391 17.4213C131.391 17.183 131.254 16.9957 130.982 16.8596C130.71 16.7064 130.361 16.6298 129.935 16.6298C128.659 16.6298 128.02 17.0213 128.02 17.8043C128.02 18.1106 128.259 18.3319 128.735 18.4681C129.212 18.6043 129.791 18.7149 130.471 18.8C131.152 18.8851 131.833 19.0128 132.514 19.183C133.195 19.3362 133.774 19.6511 134.25 20.1277C134.727 20.6043 134.965 21.2426 134.965 22.0426C134.965 23.4553 134.395 24.5277 133.254 25.2596C132.131 25.9915 130.489 26.3574 128.327 26.3574C126.165 26.3574 124.65 26.0085 123.782 25.3106C123.101 24.766 122.761 24.017 122.761 23.0638C122.761 22.7915 122.786 22.5106 122.837 22.2213L127.101 22.1702C127.067 22.4085 127.203 22.6213 127.51 22.8085C127.833 22.9787 128.301 23.0638 128.914 23.0638C129.527 23.0638 129.969 23.0043 130.242 22.8851C130.514 22.7489 130.65 22.5021 130.65 22.1447C130.65 21.9064 130.412 21.7447 129.935 21.6596C129.459 21.5574 128.871 21.4723 128.174 21.4043C127.493 21.3362 126.803 21.2255 126.106 21.0723C125.425 20.9191 124.846 20.5957 124.369 20.1021C123.893 19.6085 123.654 18.9617 123.654 18.1617C123.654 16.6128 124.25 15.4213 125.442 14.5872C126.65 13.7532 128.386 13.3362 130.65 13.3362C134.14 13.3362 135.884 14.3489 135.884 16.3745Z" fill="white"/>
</svg>
